<svg width="24" height="24" viewBox="0 0 24 24" fill="none" xmlns="http://www.w3.org/2000/svg">
<path d="M18.4712 13.7127C18.1613 13.8992 17.7997 13.9331 17.5242 13.7805C17.1798 13.577 16.9732 13.1192 16.9732 12.4918V10.5756C16.9732 9.65988 16.6116 8.99854 15.9917 8.82897C14.9414 8.52374 14.1494 9.79554 13.8566 10.2703L11.997 13.204V9.59205C11.9798 8.76114 11.7043 8.26938 11.1878 8.11677C10.8434 8.01502 10.3268 8.06589 9.82749 8.81202L5.67782 15.3576C5.12682 14.3232 4.83411 13.1701 4.83411 12C4.83411 8.04893 8.05398 4.84399 11.997 4.84399C15.9401 4.84399 19.16 8.04893 19.16 12V12.017V12.0339C19.1944 12.797 18.9533 13.4075 18.4712 13.7127ZM20.7441 12V11.983V11.9661C20.7269 7.16715 16.801 3.25 11.997 3.25C7.17583 3.25 3.25 7.16715 3.25 12C3.25 16.8159 7.17583 20.75 11.997 20.75C14.2182 20.75 16.3189 19.9191 17.9374 18.4099C18.2646 18.1046 18.2818 17.6129 17.9719 17.2907C17.6792 16.9685 17.1798 16.9515 16.8527 17.2398C16.8527 17.2398 16.8527 17.2398 16.8355 17.2568C15.5268 18.4777 13.7705 19.173 11.9626 19.173C9.84471 19.173 7.95067 18.2573 6.64206 16.7989L10.3785 10.8978V13.6279C10.3785 14.9336 10.895 15.3576 11.3255 15.4763C11.756 15.595 12.4103 15.5102 13.1162 14.4079L15.1653 11.1352C15.2341 11.0334 15.2858 10.9317 15.3547 10.8639V12.5257C15.3547 13.7466 15.854 14.7301 16.7149 15.2049C17.4898 15.6458 18.4712 15.595 19.2805 15.1032C20.2792 14.4588 20.8129 13.3396 20.7441 12Z" fill="#B7BDEE"/>
</svg>
