<svg width="24" height="24" viewBox="0 0 24 24" fill="none" xmlns="http://www.w3.org/2000/svg">
<path d="M18.7179 6.31908C17.4788 5.75051 16.15 5.33162 14.7607 5.0917C14.7354 5.08707 14.7101 5.09865 14.6971 5.12179C14.5262 5.42573 14.3369 5.82225 14.2043 6.13392C12.71 5.91021 11.2234 5.91021 9.75976 6.13392C9.62717 5.81533 9.43101 5.42573 9.25935 5.12179C9.24632 5.09942 9.22104 5.08785 9.19574 5.0917C7.80719 5.33085 6.47842 5.74975 5.23853 6.31908C5.2278 6.3237 5.2186 6.33143 5.21249 6.34145C2.69209 10.1069 2.00164 13.7798 2.34035 17.4071C2.34188 17.4248 2.35185 17.4418 2.36564 17.4526C4.02853 18.6738 5.63932 19.4152 7.2202 19.9066C7.2455 19.9143 7.27231 19.905 7.28841 19.8842C7.66237 19.3735 7.99572 18.835 8.28153 18.2688C8.2984 18.2356 8.2823 18.1963 8.24783 18.1832C7.71908 17.9826 7.2156 17.738 6.73129 17.4603C6.69299 17.438 6.68992 17.3832 6.72516 17.3569C6.82708 17.2806 6.92902 17.2011 7.02634 17.1209C7.04394 17.1062 7.06848 17.1031 7.08918 17.1124C10.2709 18.565 13.7154 18.565 16.8596 17.1124C16.8803 17.1024 16.9048 17.1054 16.9232 17.1201C17.0205 17.2003 17.1225 17.2806 17.2251 17.3569C17.2604 17.3832 17.2581 17.438 17.2198 17.4603C16.7355 17.7434 16.232 17.9826 15.7025 18.1824C15.668 18.1955 15.6527 18.2356 15.6695 18.2688C15.9615 18.8342 16.2948 19.3727 16.6619 19.8834C16.6772 19.905 16.7048 19.9143 16.7301 19.9066C18.3186 19.4152 19.9294 18.6738 21.5923 17.4526C21.6069 17.4418 21.6161 17.4256 21.6176 17.4079C22.023 13.2143 20.9387 9.5715 18.7432 6.34221C18.7378 6.33143 18.7286 6.3237 18.7179 6.31908ZM8.75667 15.1984C7.79876 15.1984 7.00947 14.319 7.00947 13.239C7.00947 12.1589 7.78345 11.2795 8.75667 11.2795C9.73752 11.2795 10.5192 12.1666 10.5038 13.239C10.5038 14.319 9.72986 15.1984 8.75667 15.1984ZM15.2166 15.1984C14.2588 15.1984 13.4695 14.319 13.4695 13.239C13.4695 12.1589 14.2434 11.2795 15.2166 11.2795C16.1975 11.2795 16.9791 12.1666 16.9638 13.239C16.9638 14.319 16.1975 15.1984 15.2166 15.1984Z" fill="#B7BDEE"/>
</svg>
