<svg width="24" height="24" viewBox="0 0 24 24" fill="none" xmlns="http://www.w3.org/2000/svg">
<path d="M18.5507 5.13242C18.5507 5.13242 20.1233 4.48314 19.9922 6.05998C19.9486 6.70927 19.5554 8.98177 19.2496 11.4398L18.2012 18.7211C18.2012 18.7211 18.1138 19.7878 17.3275 19.9733C16.5412 20.1588 15.3617 19.324 15.1433 19.1385C14.9686 18.9994 11.867 16.9124 10.7749 15.892C10.4691 15.6138 10.1197 15.0572 10.8186 14.408L15.4054 9.77019C15.9296 9.21366 16.4538 7.91509 14.2696 9.49193L8.15388 13.8978C8.15388 13.8978 7.45494 14.3616 6.14442 13.9442L3.30496 13.0166C3.30496 13.0166 2.25654 12.321 4.04758 11.6253C8.41598 9.44555 13.7891 7.21942 18.5507 5.13242Z" fill="#B7BDEE"/>
</svg>
