<svg width="24" height="24" viewBox="0 0 24 24" fill="none" xmlns="http://www.w3.org/2000/svg">
<path d="M21.4471 5.91933C20.741 6.22199 19.9727 6.43982 19.1812 6.52466C20.0029 6.03956 20.6183 5.27319 20.9118 4.36933C20.1407 4.82514 19.296 5.14475 18.4152 5.31401C18.047 4.9229 17.6017 4.61132 17.1071 4.3987C16.6125 4.18607 16.0791 4.07695 15.5401 4.07813C13.3596 4.07813 11.606 5.83449 11.606 7.98982C11.606 8.29248 11.6429 8.59514 11.7029 8.88634C8.4379 8.71667 5.52594 7.16667 3.59002 4.79352C3.23727 5.39223 3.05242 6.07393 3.0547 6.7677C3.0547 8.1251 3.74923 9.32199 4.80833 10.0259C4.18419 10.0015 3.57466 9.83101 3.02931 9.52835V9.5765C3.02931 11.4773 4.38146 13.0525 6.18355 13.4148C5.84519 13.5022 5.49711 13.5468 5.14752 13.5478C4.8914 13.5478 4.64912 13.5226 4.40453 13.4882C4.90294 15.0382 6.3543 16.164 8.08255 16.2007C6.73041 17.2531 5.03677 17.8722 3.19776 17.8722C2.8678 17.8722 2.56322 17.8607 2.2471 17.8241C3.99151 18.9361 6.06126 19.5781 8.29022 19.5781C15.5263 19.5781 19.4858 13.6212 19.4858 8.45069C19.4858 8.28102 19.4858 8.11134 19.4743 7.94167C20.2403 7.38449 20.9118 6.69433 21.4471 5.91933Z" fill="#B7BDEE"/>
</svg>
